<svg xmlns="http://www.w3.org/2000/svg" viewBox="0 0 900 700" role="img" aria-labelledby="title desc">
  <title id="title">Milk and cheese still life</title>
  <desc id="desc">A glass of milk, a milk bottle, and cheese pieces on a soft blue gray background.</desc>
  <defs>
    <linearGradient id="bg" x1="0" y1="0" x2="1" y2="1">
      <stop offset="0%" stop-color="#d8e2e5"/>
      <stop offset="58%" stop-color="#9fb3b8"/>
      <stop offset="100%" stop-color="#78939b"/>
    </linearGradient>
    <linearGradient id="milk" x1="0" y1="0" x2="0" y2="1">
      <stop offset="0%" stop-color="#fffdf3"/>
      <stop offset="52%" stop-color="#f4ebcf"/>
      <stop offset="100%" stop-color="#dfc58f"/>
    </linearGradient>
    <linearGradient id="glass" x1="0" y1="0" x2="1" y2="1">
      <stop offset="0%" stop-color="#ffffff" stop-opacity=".72"/>
      <stop offset="45%" stop-color="#d9e6e9" stop-opacity=".22"/>
      <stop offset="100%" stop-color="#ffffff" stop-opacity=".52"/>
    </linearGradient>
    <linearGradient id="cheese" x1="0" y1="0" x2="0" y2="1">
      <stop offset="0%" stop-color="#f2c879"/>
      <stop offset="58%" stop-color="#dcae5e"/>
      <stop offset="100%" stop-color="#bd8743"/>
    </linearGradient>
    <radialGradient id="shadow" cx="50%" cy="50%" r="50%">
      <stop offset="0%" stop-color="#1f2423" stop-opacity=".28"/>
      <stop offset="100%" stop-color="#1f2423" stop-opacity="0"/>
    </radialGradient>
    <filter id="soft" x="-20%" y="-20%" width="140%" height="140%">
      <feGaussianBlur stdDeviation="2.2"/>
    </filter>
    <filter id="drop" x="-20%" y="-20%" width="140%" height="140%">
      <feDropShadow dx="0" dy="12" stdDeviation="12" flood-color="#2d3e42" flood-opacity=".2"/>
    </filter>
    <clipPath id="rounded">
      <rect x="20" y="20" width="860" height="660" rx="42"/>
    </clipPath>
    <pattern id="grain" width="70" height="70" patternUnits="userSpaceOnUse">
      <circle cx="18" cy="24" r="1" fill="#ffffff" opacity=".18"/>
      <circle cx="54" cy="38" r="1.3" fill="#2d3e42" opacity=".08"/>
      <circle cx="34" cy="62" r=".8" fill="#f2e6d3" opacity=".16"/>
    </pattern>
  </defs>

  <rect width="900" height="700" fill="#fffdf8"/>
  <g clip-path="url(#rounded)">
    <rect x="20" y="20" width="860" height="660" rx="42" fill="url(#bg)"/>
    <rect x="20" y="20" width="860" height="660" rx="42" fill="url(#grain)"/>
    <rect x="20" y="420" width="860" height="260" fill="#8fa4a8" opacity=".38"/>
    <ellipse cx="516" cy="610" rx="360" ry="64" fill="url(#shadow)"/>

    <g filter="url(#drop)">
      <path d="M480 132c0-34 24-48 54-48h106c30 0 54 14 54 48v40c0 18-9 36-22 50v330c0 36-24 58-58 58H560c-34 0-58-22-58-58V222c-13-14-22-32-22-50v-40z" fill="url(#glass)" stroke="#dce7e9" stroke-width="5"/>
      <rect x="506" y="260" width="160" height="292" rx="34" fill="url(#milk)" opacity=".95"/>
      <path d="M505 262c34 10 112 10 162 0v48c-54 16-128 14-162 0z" fill="#fffaf0" opacity=".72"/>
      <ellipse cx="587" cy="136" rx="109" ry="22" fill="#edf5f6" stroke="#7b9197" stroke-width="4" opacity=".82"/>
      <ellipse cx="587" cy="160" rx="93" ry="16" fill="none" stroke="#ffffff" stroke-width="4" opacity=".68"/>
      <path d="M534 104c34 9 75 9 106 0" fill="none" stroke="#ffffff" stroke-width="8" opacity=".55"/>
      <path d="M534 214c18 102 18 228 0 338" fill="none" stroke="#ffffff" stroke-width="7" opacity=".38"/>
      <path d="M648 208c16 116 14 240-5 348" fill="none" stroke="#445a60" stroke-width="5" opacity=".12"/>
    </g>

    <g filter="url(#drop)">
      <path d="M164 292c0-40 28-66 70-66h112c42 0 70 26 70 66v268c0 35-25 58-60 58H224c-35 0-60-23-60-58V292z" fill="url(#glass)" stroke="#dce7e9" stroke-width="5"/>
      <rect x="184" y="318" width="212" height="246" rx="22" fill="url(#milk)" opacity=".96"/>
      <path d="M184 320c52 16 152 16 212 0v42c-70 20-160 20-212 0z" fill="#fffaf0" opacity=".76"/>
      <ellipse cx="290" cy="286" rx="128" ry="28" fill="#edf5f6" stroke="#81969c" stroke-width="4" opacity=".78"/>
      <ellipse cx="290" cy="302" rx="107" ry="18" fill="none" stroke="#ffffff" stroke-width="4" opacity=".62"/>
      <path d="M210 356c16 76 16 144 0 208" fill="none" stroke="#ffffff" stroke-width="7" opacity=".4"/>
      <path d="M368 342c10 82 8 154-4 220" fill="none" stroke="#445a60" stroke-width="5" opacity=".12"/>
    </g>

    <g filter="url(#drop)">
      <path d="M690 518c0-44 34-72 82-72h54c48 0 82 28 82 72v60c0 44-34 72-82 72h-54c-48 0-82-28-82-72v-60z" fill="#7899a2"/>
      <ellipse cx="799" cy="518" rx="111" ry="54" fill="#9db5bb"/>
      <path d="M714 514c24 31 54 44 91 40 36-4 64-19 83-46 16 28 10 77-15 104-28 31-108 42-150 10-29-22-39-72-9-108z" fill="#799aa3"/>
      <rect x="718" y="428" width="122" height="132" rx="32" fill="#e5d8bd"/>
      <ellipse cx="779" cy="429" rx="61" ry="24" fill="#efe6d1"/>
      <path d="M728 458c34 10 75 10 104 0" fill="none" stroke="#fff9ec" stroke-width="5" opacity=".52"/>
      <rect x="564" y="514" width="142" height="92" rx="18" fill="url(#cheese)"/>
      <ellipse cx="635" cy="514" rx="71" ry="26" fill="#f4ce83"/>
      <circle cx="608" cy="551" r="6" fill="#c7914b" opacity=".32"/>
      <circle cx="656" cy="545" r="4" fill="#c7914b" opacity=".3"/>
      <circle cx="675" cy="580" r="5" fill="#c7914b" opacity=".26"/>
    </g>

    <g filter="url(#drop)">
      <path d="M378 558c10-34 36-52 78-54l110-5c40-2 69 18 82 50l-12 84c-6 31-28 47-66 47H434c-42 0-65-20-68-56l12-66z" fill="url(#cheese)"/>
      <ellipse cx="508" cy="548" rx="130" ry="42" fill="#f6cf82"/>
      <path d="M397 582c54 20 156 22 230 2" fill="none" stroke="#fff2cf" stroke-width="4" opacity=".38"/>
      <circle cx="444" cy="594" r="7" fill="#b98543" opacity=".28"/>
      <circle cx="506" cy="603" r="5" fill="#b98543" opacity=".24"/>
      <circle cx="585" cy="586" r="6" fill="#b98543" opacity=".24"/>
    </g>

    <g filter="url(#drop)">
      <path d="M54 446c60-28 110-34 150-16 30 13 39 40 24 68l-28 52c-40 7-83 6-128-3L54 446z" fill="#e0a750"/>
      <path d="M68 458c47-20 88-22 123-6" fill="none" stroke="#f5d28b" stroke-width="8" opacity=".55"/>
      <path d="M86 601c18-24 43-36 76-35 37 1 65 17 85 47l-12 52H86v-64z" fill="#f1dfbd"/>
      <path d="M214 588c20-12 40-12 60 0 18 11 27 28 28 50l-40 30-64-10c-10-30-5-53 16-70z" fill="#e8c88d"/>
      <path d="M130 570c-26 12-42 34-46 65" fill="none" stroke="#fff3d6" stroke-width="7" opacity=".48"/>
    </g>

    <rect x="20" y="20" width="860" height="660" rx="42" fill="none" stroke="#607177" stroke-opacity=".3" stroke-width="2"/>
  </g>
</svg>
